<svg xmlns="http://www.w3.org/2000/svg" width="1015.874" height="644.062" viewBox="0 0 1015.874 644.062">
  <defs>
    <style>
      .cls-1 {
        fill-rule: evenodd;
        fill: #fff;
      }
    </style>
  </defs>
  <path id="Rectangle_11_copy_15"  class="cls-1" d="M1611.67,589.639h1.82v28.19h-1.82v-28.19Zm-4.54,27.295h10.91l-5.45,19.076Zm-17.84-9.108h1.82v28.19h-1.82v-28.19Zm-4.55.895h10.91l-5.45-19.076Zm-533.91-70.915h1.82V952.469h-1.82V537.806Zm-4.55,413.768h10.92l-5.46,19.075ZM975.522,532.638l1.114,1.438L624.265,810.4l-1.114-1.439ZM621.076,804.819l6.68,8.629-18.429,7.36ZM606.693,879.1h1.82v28.189h-1.82V879.1Zm-4.546,27.295H613.06L607.6,925.465ZM1004.44,537.806h1.82V661.478h-1.82V537.806ZM999.9,660.583h10.915l-5.46,19.075ZM696.846,1004.3h123.7v1.82h-123.7v-1.82Zm122.8,6.37V999.755l19.08,5.455Zm-155.2-117.135,0.8-1.635,159.631,77.576-0.8,1.634ZM821.281,974.8L826.067,965l14.755,13.268Zm94.946-521.589-0.263-1.791-207.481,30.3,0.263,1.791ZM710.286,487.865l-1.576-10.748-18.061,8.122Zm-12.918,13.6,0.262,1.78,207.142-30.114-0.263-1.78Zm205.6-34.436,1.574,10.682,18.031-8.072Zm43.587,46.327-0.923-1.558L695.114,659.429l0.923,1.558ZM699.112,664.427l-5.536-9.348-13.63,14.364Zm-7.474,17.713,0.919,1.548L943.515,536.132l-0.918-1.548Zm247.9-150.972,5.509,9.287,13.622-14.306Zm157.686,6.638h1.82V661.478h-1.82V537.806Zm-4.55,122.777h10.91l-5.45,19.075Zm4.55,150.934h1.82v18.19h-1.82v-18.19Zm-4.55,17.295h10.91l-5.45,19.076Zm4.55,79.376h1.82v45.19h-1.82v-45.19Zm-4.55,44.295h10.91l-5.45,19.076Zm-18.19,96.377h1.82v28.19h-1.82v-28.19Zm-4.55,27.29h10.91l-5.45,19.08Zm-41.84-9.1h1.82v28.19h-1.82v-28.19Zm-4.55.89h10.92l-5.46-19.07Zm-19.1-215.233h1.82V953.378h-1.82V852.707ZM999.9,952.483h10.915l-5.46,19.076ZM1181.8,453l0.27-1.8,207.81,30.435-0.27,1.8Zm206.27,34.8,1.58-10.8,18.09,8.158Zm12.94,13.661-0.26,1.788L1193.28,473l0.26-1.788Zm-205.93-34.587L1193.5,477.6l-18.06-8.108Zm-56.68,46.116,0.92-1.558,250.19,147.6-0.92,1.558Zm247.12,151.044,5.53-9.346,13.61,14.361Zm7.46,17.71-0.92,1.548L1141.44,535.759l0.92-1.548ZM1145.41,530.795l-5.5,9.286-13.6-14.3Z" transform="translate(-602.156 -451.188)"/>
</svg>
